<svg width="204" height="102" viewBox="0 0 204 102" fill="none" xmlns="http://www.w3.org/2000/svg">
<rect x="2.5" y="24.5" width="199" height="66" rx="12.5" stroke="white" stroke-width="5"/>
<path d="M34.46 42.735C35.37 41.8683 36.4317 41.2617 37.645 40.915C38.9017 40.525 40.44 40.33 42.26 40.33V51.185C40.31 51.185 38.7067 51.315 37.45 51.575C36.2367 51.835 35.24 52.29 34.46 52.94V42.735ZM19.705 40.85H31.73V74H19.705V40.85ZM63.6475 53.46C63.6475 52.3333 63.6042 51.5317 63.5175 51.055C63.4309 50.5783 63.1709 50.2317 62.7375 50.015C62.3475 49.7983 61.6109 49.6467 60.5275 49.56C59.8775 49.5167 58.4692 49.495 56.3025 49.495C54.2225 49.495 52.2942 49.5817 50.5175 49.755L47.0725 49.95V41.5C51.1459 40.72 55.5442 40.33 60.2675 40.33C63.9075 40.33 66.7459 40.59 68.7825 41.11C70.8625 41.63 72.4225 42.4533 73.4625 43.58C74.3725 44.62 74.9575 45.9417 75.2175 47.545C75.5209 49.1483 75.6725 51.38 75.6725 54.24V74H63.6475V53.46ZM54.0275 74.455C51.0375 74.455 48.8275 73.6317 47.3975 71.985C45.9675 70.295 45.2525 67.76 45.2525 64.38C45.2525 62.3 45.4042 60.6317 45.7075 59.375C46.0109 58.075 46.5309 57.0567 47.2675 56.32C48.0042 55.54 49.0225 54.9983 50.3225 54.695C51.6225 54.3483 53.3342 54.175 55.4575 54.175L60.9175 54.305V60.09H60.2675C59.2709 60.09 58.6209 60.1117 58.3175 60.155C57.4509 60.1983 56.9959 60.61 56.9525 61.39C56.9092 61.65 56.8875 62.1917 56.8875 63.015C56.8875 63.665 56.9092 64.1633 56.9525 64.51C57.0392 64.8567 57.1692 65.1383 57.3425 65.355C57.5592 65.6583 57.8842 65.8317 58.3175 65.875C58.9242 65.9617 59.5742 66.005 60.2675 66.005H60.9175V72.635C59.9642 73.3717 58.9459 73.8483 57.8625 74.065C56.8225 74.325 55.5442 74.455 54.0275 74.455ZM79.2379 40.85H91.5229L100.428 74H88.9229L79.2379 40.85ZM98.5429 56.45L101.923 40.85H113.753L104.068 74H103.288L98.5429 56.45ZM131.174 54.175H135.724C135.724 51.7483 135.486 50.1883 135.009 49.495C134.749 49.105 134.402 48.8667 133.969 48.78C133.536 48.65 132.907 48.585 132.084 48.585H131.174V40.33H132.084C135.811 40.33 138.671 40.6333 140.664 41.24C142.701 41.8467 144.196 42.8433 145.149 44.23C146.016 45.4433 146.536 47.0033 146.709 48.91C146.926 50.8167 147.034 53.6767 147.034 57.49V60.09H131.174V54.175ZM133.384 74.52C129.397 74.52 126.256 74.195 123.959 73.545C121.706 72.8517 120.016 71.7683 118.889 70.295C117.892 68.995 117.242 67.3917 116.939 65.485C116.636 63.535 116.484 60.87 116.484 57.49C116.484 54.37 116.592 51.9 116.809 50.08C117.026 48.2167 117.481 46.635 118.174 45.335C118.954 43.905 120.146 42.8 121.749 42.02C123.396 41.1967 125.627 40.6767 128.444 40.46V60.09C128.444 61.5633 128.509 62.625 128.639 63.275C128.769 63.8817 129.072 64.3367 129.549 64.64C130.069 64.9867 130.871 65.1817 131.954 65.225C133.341 65.3117 134.814 65.355 136.374 65.355C139.147 65.355 141.162 65.29 142.419 65.16L145.734 64.9V73.285C144.001 73.805 141.617 74.1517 138.584 74.325C137.111 74.455 135.377 74.52 133.384 74.52ZM172.426 58.335C172.426 56.0383 172.404 54.5217 172.361 53.785C172.274 52.5717 172.166 51.77 172.036 51.38C171.862 50.9467 171.559 50.6867 171.126 50.6C170.692 50.47 169.999 50.405 169.046 50.405H168.396V42.28C170.086 41.0233 172.296 40.395 175.026 40.395C178.926 40.395 181.547 41.5867 182.891 43.97C183.497 45.01 183.909 46.2883 184.126 47.805C184.342 49.2783 184.451 51.0983 184.451 53.265V74H172.426V58.335ZM153.641 40.85H165.666V74H153.641V40.85Z" fill="white"/>
</svg>
