<svg width="21" height="20" viewBox="0 0 21 20" fill="none" xmlns="http://www.w3.org/2000/svg">
<path d="M0.75 1.5H4.25L6.175 3.46C7.55167 2.2 9.27833 1.37167 11.355 0.974998L11.775 7.59C11.215 7.61333 10.48 7.75333 9.57 8.01C8.68333 8.26667 8.07667 8.59333 7.75 8.99V19H0.75V1.5ZM13.945 18.405C13.4317 17.8683 13.175 16.9117 13.175 15.535C13.175 14.1583 13.4317 13.19 13.945 12.63C14.4583 12.07 15.4617 11.79 16.955 11.79C18.4717 11.79 19.4867 12.07 20 12.63C20.5133 13.19 20.77 14.1583 20.77 15.535C20.77 16.9117 20.5133 17.8683 20 18.405C19.4867 18.9417 18.4717 19.21 16.955 19.21C15.4617 19.21 14.4583 18.9417 13.945 18.405Z" fill="url(#paint0_linear_20_2)"/>
<defs>
<linearGradient id="paint0_linear_20_2" x1="10.5" y1="-12" x2="10.5" y2="25" gradientUnits="userSpaceOnUse">
<stop stop-color="#743AD5"/>
<stop offset="0.755208" stop-color="#D53A9D"/>
</linearGradient>
</defs>
</svg>
