<svg width="176" height="87" viewBox="0 0 176 87" fill="none" xmlns="http://www.w3.org/2000/svg">
<rect x="2" y="18" width="172" height="62" rx="13" stroke="white" stroke-width="4"/>
<path d="M31.62 36.545C32.39 35.8117 33.2883 35.2983 34.315 35.005C35.3783 34.675 36.68 34.51 38.22 34.51V43.695C36.57 43.695 35.2133 43.805 34.15 44.025C33.1233 44.245 32.28 44.63 31.62 45.18V36.545ZM19.135 34.95H29.31V63H19.135V34.95ZM56.3171 45.62C56.3171 44.6667 56.2805 43.9883 56.2071 43.585C56.1338 43.1817 55.9138 42.8883 55.5471 42.705C55.2171 42.5217 54.5938 42.3933 53.6771 42.32C53.1271 42.2833 51.9355 42.265 50.1021 42.265C48.3421 42.265 46.7105 42.3383 45.2071 42.485L42.2921 42.65V35.5C45.7388 34.84 49.4605 34.51 53.4571 34.51C56.5371 34.51 58.9388 34.73 60.6621 35.17C62.4221 35.61 63.7421 36.3067 64.6221 37.26C65.3921 38.14 65.8871 39.2583 66.1071 40.615C66.3638 41.9717 66.4921 43.86 66.4921 46.28V63H56.3171V45.62ZM48.1771 63.385C45.6471 63.385 43.7771 62.6883 42.5671 61.295C41.3571 59.865 40.7521 57.72 40.7521 54.86C40.7521 53.1 40.8805 51.6883 41.1371 50.625C41.3938 49.525 41.8338 48.6633 42.4571 48.04C43.0805 47.38 43.9421 46.9217 45.0421 46.665C46.1421 46.3717 47.5905 46.225 49.3871 46.225L54.0071 46.335V51.23H53.4571C52.6138 51.23 52.0638 51.2483 51.8071 51.285C51.0738 51.3217 50.6888 51.67 50.6521 52.33C50.6155 52.55 50.5971 53.0083 50.5971 53.705C50.5971 54.255 50.6155 54.6767 50.6521 54.97C50.7255 55.2633 50.8355 55.5017 50.9821 55.685C51.1655 55.9417 51.4405 56.0883 51.8071 56.125C52.3205 56.1983 52.8705 56.235 53.4571 56.235H54.0071V61.845C53.2005 62.4683 52.3388 62.8717 51.4221 63.055C50.5421 63.275 49.4605 63.385 48.1771 63.385ZM69.509 34.95H79.904L87.439 63H77.704L69.509 34.95ZM85.844 48.15L88.704 34.95H98.714L90.519 63H89.859L85.844 48.15ZM113.455 46.225H117.305C117.305 44.1717 117.103 42.8517 116.7 42.265C116.48 41.935 116.187 41.7333 115.82 41.66C115.453 41.55 114.922 41.495 114.225 41.495H113.455V34.51H114.225C117.378 34.51 119.798 34.7667 121.485 35.28C123.208 35.7933 124.473 36.6367 125.28 37.81C126.013 38.8367 126.453 40.1567 126.6 41.77C126.783 43.3833 126.875 45.8033 126.875 49.03V51.23H113.455V46.225ZM115.325 63.44C111.952 63.44 109.293 63.165 107.35 62.615C105.443 62.0283 104.013 61.1117 103.06 59.865C102.217 58.765 101.667 57.4083 101.41 55.795C101.153 54.145 101.025 51.89 101.025 49.03C101.025 46.39 101.117 44.3 101.3 42.76C101.483 41.1833 101.868 39.845 102.455 38.745C103.115 37.535 104.123 36.6 105.48 35.94C106.873 35.2433 108.762 34.8033 111.145 34.62V51.23C111.145 52.4767 111.2 53.375 111.31 53.925C111.42 54.4383 111.677 54.8233 112.08 55.08C112.52 55.3733 113.198 55.5383 114.115 55.575C115.288 55.6483 116.535 55.685 117.855 55.685C120.202 55.685 121.907 55.63 122.97 55.52L125.775 55.3V62.395C124.308 62.835 122.292 63.1283 119.725 63.275C118.478 63.385 117.012 63.44 115.325 63.44ZM148.36 49.745C148.36 47.8017 148.342 46.5183 148.305 45.895C148.232 44.8683 148.14 44.19 148.03 43.86C147.883 43.4933 147.627 43.2733 147.26 43.2C146.893 43.09 146.307 43.035 145.5 43.035H144.95V36.16C146.38 35.0967 148.25 34.565 150.56 34.565C153.86 34.565 156.078 35.5733 157.215 37.59C157.728 38.47 158.077 39.5517 158.26 40.835C158.443 42.0817 158.535 43.6217 158.535 45.455V63H148.36V49.745ZM132.465 34.95H142.64V63H132.465V34.95Z" fill="white"/>
</svg>
