<svg width="100" height="20" viewBox="0 0 100 20" fill="none" xmlns="http://www.w3.org/2000/svg">
<path d="M0.75 1.5H4.25L6.175 3.46C7.55167 2.2 9.27833 1.37167 11.355 0.974998L11.775 7.59C11.215 7.61333 10.48 7.75333 9.57 8.01C8.68333 8.26667 8.07667 8.59333 7.75 8.99V19H0.75V1.5ZM22.17 0.974998C27.77 0.974998 30.57 2.9 30.57 6.75V19H27.07L25.075 17.005C24.3983 17.7983 23.4767 18.4167 22.31 18.86C21.1433 19.3033 20.035 19.525 18.985 19.525C17.9583 19.525 17.13 19.4433 16.5 19.28C15.87 19.1167 15.2517 18.8367 14.645 18.44C13.315 17.6 12.65 16.0367 12.65 13.75C12.65 9.55 15.8233 7.45 22.17 7.45H23.57V6.19C22.8233 6.14333 22.205 6.12 21.715 6.12C19.0783 6.12 16.815 6.435 14.925 7.065L14.085 2.06C16.4183 1.33667 19.1133 0.974998 22.17 0.974998ZM19.72 12.98V14.415H21.155C22.1817 14.415 22.835 14.2983 23.115 14.065C23.4183 13.8317 23.57 13.5283 23.57 13.155V11.51H22.135C21.295 11.51 20.6767 11.6033 20.28 11.79C19.9067 11.9533 19.72 12.35 19.72 12.98ZM36.3584 19L31.9834 1.5H38.9834L40.9084 12.875H41.2584L43.1834 1.5H50.1834L45.8084 19H36.3584ZM58.742 13.05V14.275C59.442 14.345 60.142 14.38 60.842 14.38C63.012 14.38 65.2053 14.03 67.422 13.33L68.262 18.475C65.6487 19.175 63.0587 19.525 60.492 19.525C57.2253 19.525 54.857 18.7667 53.387 17.25C51.9403 15.71 51.217 13.3767 51.217 10.25C51.217 7.12333 51.9403 4.80167 53.387 3.285C54.857 1.745 57.2137 0.974998 60.457 0.974998C63.7237 0.974998 65.9753 1.41833 67.212 2.305C68.4487 3.19167 69.067 4.84833 69.067 7.275C69.067 9.32833 68.3203 10.81 66.827 11.72C65.357 12.6067 62.662 13.05 58.742 13.05ZM58.742 7.555V8.99H60.177C61.017 8.99 61.6237 8.90833 61.997 8.745C62.3937 8.55833 62.592 8.15 62.592 7.52V6.085H61.157C60.317 6.085 59.6987 6.17833 59.302 6.365C58.9287 6.52833 58.742 6.925 58.742 7.555ZM75.207 1.5L76.957 3.25C79.127 1.73333 81.4604 0.974998 83.957 0.974998C85.5904 0.974998 86.8737 1.33667 87.807 2.06C88.7404 2.76 89.207 3.74 89.207 5V19H82.207V6.75H81.122C80.3287 6.75 79.722 6.84333 79.302 7.03C78.9054 7.19333 78.707 7.54333 78.707 8.08V19H71.707V1.5H75.207ZM92.5925 18.405C92.0791 17.8683 91.8225 16.9117 91.8225 15.535C91.8225 14.1583 92.0791 13.19 92.5925 12.63C93.1058 12.07 94.1091 11.79 95.6025 11.79C97.1191 11.79 98.1341 12.07 98.6475 12.63C99.1608 13.19 99.4175 14.1583 99.4175 15.535C99.4175 16.9117 99.1608 17.8683 98.6475 18.405C98.1341 18.9417 97.1191 19.21 95.6025 19.21C94.1091 19.21 93.1058 18.9417 92.5925 18.405Z" fill="url(#paint0_linear_107_2)"/>
<defs>
<linearGradient id="paint0_linear_107_2" x1="19" y1="25" x2="79.5" y2="25" gradientUnits="userSpaceOnUse">
<stop stop-color="#743AD5"/>
<stop offset="0.755208" stop-color="#D53A9D"/>
</linearGradient>
</defs>
</svg>
