<svg width="24" height="23" viewBox="0 0 24 23" fill="none" xmlns="http://www.w3.org/2000/svg">
<path d="M4.68474 1H19.3695C21.3744 1 23 2.62872 23 4.69183V14.7902C23 16.7989 21.3744 18.482 19.3695 18.482H13.734L6.85221 21.9024C6.36453 22.1739 5.8227 21.8482 5.8227 21.3052V18.482H4.68478C2.6256 18.482 1 16.7989 1 14.7902V4.69183C1 2.62872 2.6256 1 4.68478 1L4.68474 1ZM19.3695 2.3573H4.68474C3.38418 2.3573 2.35463 3.38878 2.35463 4.69187V14.7902C2.35463 16.0389 3.38415 17.0704 4.68474 17.0704H7.23163V20.2192L13.409 17.0704H19.3696C20.6159 17.0704 21.6454 16.0389 21.6454 14.7902V4.69187C21.6454 3.38882 20.6159 2.3573 19.3696 2.3573H19.3695Z" fill="white" stroke="white" stroke-width="0.5"/>
</svg>
