<svg width="24" height="21" viewBox="0 0 24 21" fill="none" xmlns="http://www.w3.org/2000/svg">
<path d="M7.24995 1C3.5565 1 1 4.02895 1 7.75045C1 10.8757 2.2078 13.1629 4.14832 15.0715C6.08884 16.9801 8.73936 18.5516 11.7344 20.4236C11.8968 20.5255 12.1032 20.5255 12.2656 20.4236C15.2603 18.5518 17.9106 16.9801 19.8517 15.0715C21.7922 13.1629 23 10.8758 23 7.75045C23 4.02882 20.4435 1 16.7501 1C14.6198 1 12.9375 2.02007 12.0001 2.84392C11.0626 2.02007 9.38047 1 7.25013 1H7.24995ZM7.24995 1.99998C9.266 1.99998 11.002 3.19006 11.6406 3.84389H11.6405C11.7346 3.94138 11.8644 3.99632 11.9999 3.99632C12.1354 3.99632 12.2651 3.94138 12.3593 3.84389C12.9979 3.19006 14.7338 1.99998 16.7499 1.99998C19.9082 1.99998 21.9999 4.47153 21.9999 7.75036C21.9999 10.6255 20.9578 12.581 19.1484 14.3602C17.397 16.0822 14.8829 17.6008 11.9998 19.3998C9.11666 17.6011 6.60249 16.0824 4.85161 14.3602C3.0422 12.5808 2.00007 10.6255 2.00007 7.75036C2.00007 4.47153 4.09179 1.99998 7.25003 1.99998H7.24995Z" stroke="white"/>
</svg>
