<svg width="24" height="24" viewBox="0 0 24 24" fill="none" xmlns="http://www.w3.org/2000/svg">
<path d="M12.0003 19.9949L13.8048 20.9751C17.3493 22.9007 19.6736 21.1529 18.9974 17.0769L18.6528 15.0011L20.1127 13.5305C22.9802 10.6422 22.0898 7.818 18.1294 7.22353L16.1118 6.92063L15.2095 5.03167C13.437 1.32092 10.5624 1.3236 8.79112 5.03167L7.88886 6.92063L5.87127 7.22353C1.90791 7.81845 1.02212 10.6444 3.88792 13.5305L5.34787 15.0011L5.00325 17.0769C4.32624 21.1555 6.65336 22.8993 10.1958 20.9751L12.0003 19.9949ZM10.7585 22.0812C6.3282 24.4879 2.96459 21.9644 3.81118 16.866L4.04824 15.4373L3.04348 14.4253C-0.540638 10.8156 0.742868 6.73054 5.69709 5.98701L7.08566 5.77824L7.70658 4.47862C9.92155 -0.159093 14.0781 -0.159986 16.2938 4.47862L16.9147 5.77824L18.3029 5.98701C23.2558 6.73055 24.5415 10.8148 20.9565 14.4253L19.9517 15.4373L20.1892 16.866C21.0349 21.9632 17.6731 24.4883 13.2415 22.0812L12.0001 21.4066L10.7585 22.0812Z" fill="white" stroke="white"/>
</svg>
