<svg width="22" height="23" viewBox="0 0 22 23" fill="none" xmlns="http://www.w3.org/2000/svg">
<path fill-rule="evenodd" clip-rule="evenodd" d="M14.3477 3.83332C14.3477 1.71623 16.0607 0 18.1737 0C20.2868 0 21.9998 1.71623 21.9998 3.83332C21.9998 5.9504 20.2868 7.66663 18.1737 7.66663C16.9142 7.66663 15.7968 7.05675 15.0997 6.11578L9.3879 10.2032C9.50341 10.6157 9.56511 11.0506 9.56511 11.5C9.56511 11.9494 9.50341 12.3843 9.3879 12.7968L15.0997 16.8842C15.797 15.9432 16.9145 15.3334 18.1739 15.3334C20.287 15.3334 22 17.0496 22 19.1667C22 21.2838 20.287 23 18.1739 23C16.0609 23 14.3479 21.2838 14.3479 19.1667C14.3479 19.0157 14.3566 18.8666 14.3737 18.7198L8.49909 14.516C7.62221 15.5992 6.28309 16.2917 4.78257 16.2917C2.14128 16.2917 0 14.1463 0 11.5C0 8.85374 2.14128 6.7084 4.78257 6.7084C6.28309 6.7084 7.62221 7.40086 8.49909 8.4841L14.3737 4.28027C14.3566 4.13352 14.3479 3.98443 14.3479 3.8334L14.3477 3.83332ZM18.1737 1.91666C17.1171 1.91666 16.2607 2.77488 16.2607 3.83332C16.2607 4.89175 17.1171 5.74997 18.1737 5.74997C19.2304 5.74997 20.0868 4.89175 20.0868 3.83332C20.0868 2.77488 19.2304 1.91666 18.1737 1.91666ZM4.78253 8.62496C3.19767 8.62496 1.91299 9.91208 1.91299 11.4999C1.91299 13.0878 3.19767 14.3749 4.78253 14.3749C6.36739 14.3749 7.65207 13.0878 7.65207 11.4999C7.65207 9.91208 6.36739 8.62496 4.78253 8.62496ZM16.2607 19.1666C16.2607 18.1079 17.1171 17.2499 18.1737 17.2499C19.2304 17.2499 20.0868 18.1079 20.0868 19.1666C20.0868 20.2252 19.2304 21.0832 18.1737 21.0832C17.1171 21.0832 16.2607 20.2252 16.2607 19.1666Z" fill="white"/>
</svg>
