<svg width="24" height="24" viewBox="0 0 24 24" fill="none" xmlns="http://www.w3.org/2000/svg">
<path d="M12.006 23C10.9091 23 9.83039 22.5671 9.05699 21.8223C8.28359 21.0776 7.8431 20.0387 7.8431 18.9906C7.8431 17.9428 8.28361 16.9035 9.05699 16.1587C9.83039 15.4139 10.9091 14.9896 12.006 14.9896C13.0941 14.9896 14.1637 15.4141 14.9371 16.1587C15.7105 16.9032 16.1598 17.9428 16.1598 18.9906C16.1598 20.0384 15.7104 21.0773 14.9371 21.8223C14.1634 22.5671 13.0941 23 12.006 23V23ZM12.006 22.5154C12.9589 22.5154 13.9031 22.1258 14.5773 21.4763C15.2515 20.8359 15.6471 19.9088 15.6471 18.9911C15.6471 18.0729 15.2515 17.1548 14.5773 16.5058C13.9031 15.8562 12.9589 15.4753 12.006 15.4753C11.053 15.4753 10.091 15.8561 9.41659 16.5058C8.74236 17.1553 8.34678 18.0734 8.34678 18.9911C8.34678 19.9088 8.74237 20.8355 9.41659 21.4763C10.0911 22.1255 11.0528 22.5154 12.006 22.5154ZM5.0918 15.7692C4.68731 15.7692 4.28282 15.622 3.96819 15.319L1.44186 12.8424C0.821482 12.2357 0.893283 11.3183 1.41518 10.6773C1.42407 10.6686 1.43297 10.66 1.44186 10.66L8.32879 3.93146L10.8645 1.45484C11.476 0.848386 12.4915 0.848386 13.1119 1.45484L15.6387 3.93146L22.5347 10.66C23.1551 11.2664 23.1551 12.2357 22.5347 12.8424L19.9995 15.319C19.7027 15.6134 19.2982 15.7519 18.9028 15.7608C18.8939 15.7608 18.8845 15.7692 18.8756 15.7692C18.4707 15.7692 18.0576 15.622 17.752 15.319L11.9877 9.68159L6.22448 15.319C5.90961 15.622 5.50511 15.7692 5.09154 15.7692L5.0918 15.7692ZM5.0918 15.2842C5.37064 15.2842 5.64038 15.1805 5.85586 14.9726L11.8081 9.17029C11.8979 9.07519 12.0778 9.07519 12.1676 9.17029L18.1193 14.9726C18.3258 15.1805 18.6045 15.2758 18.8744 15.2758C19.1531 15.2758 19.423 15.1803 19.6385 14.9726L22.1648 12.496C22.5964 12.0801 22.5964 11.422 22.1648 10.998L15.279 4.26895H15.2877L12.7434 1.80102C12.3209 1.38563 11.6558 1.38563 11.224 1.80102L8.68832 4.26895L1.81904 10.9803C1.42345 11.4739 1.36964 12.0802 1.80081 12.496L4.33647 14.9726C4.54394 15.1806 4.82235 15.2843 5.09205 15.2843L5.0918 15.2842Z" fill="white" stroke="white" stroke-width="1.5"/>
</svg>
