<?xml version="1.0" standalone="no"?>
<!DOCTYPE svg PUBLIC "-//W3C//DTD SVG 20010904//EN"
 "http://www.w3.org/TR/2001/REC-SVG-20010904/DTD/svg10.dtd">
<svg version="1.0" xmlns="http://www.w3.org/2000/svg"
 width="552.000000pt" height="552.000000pt" viewBox="0 0 552.000000 552.000000"
 preserveAspectRatio="xMidYMid meet">
<metadata>
Created by potrace 1.14, written by Peter Selinger 2001-2017
</metadata>
<g transform="translate(0.000000,552.000000) scale(0.100000,-0.100000)"
fill="#000000" stroke="none">
<path d="M2771 5235 c-121 -28 -211 -55 -336 -98 -49 -18 -92 -32 -95 -32 -3
-1 -22 -9 -44 -18 -21 -9 -44 -17 -51 -17 -7 0 -18 -7 -25 -15 -7 -8 -17 -15
-22 -15 -5 0 -25 -7 -46 -16 -20 -8 -39 -14 -41 -14 -2 1 -7 -2 -10 -7 -3 -4
-33 -22 -66 -39 -103 -54 -194 -107 -240 -141 -6 -5 -33 -24 -60 -43 -28 -19
-55 -39 -61 -45 -6 -5 -22 -17 -34 -25 -12 -8 -32 -23 -43 -34 -56 -47 -105
-86 -110 -86 -5 0 -158 154 -429 431 -84 85 -98 96 -132 97 -20 1 -40 4 -44 6
-5 3 -14 1 -22 -4 -7 -4 -23 -5 -34 0 -12 4 -30 4 -41 0 -11 -4 -32 -4 -46 0
-15 4 -32 4 -39 0 -7 -5 -22 -5 -34 -1 -11 5 -35 5 -53 1 -18 -5 -36 -4 -39 1
-3 5 -10 7 -15 4 -12 -8 -89 -12 -89 -5 0 3 -30 3 -66 0 -36 -3 -67 -3 -70 1
-2 4 -20 3 -39 -1 -20 -4 -38 -4 -41 1 -3 5 -10 6 -16 3 -6 -4 -38 -6 -72 -5
-71 2 -106 2 -141 0 l-25 -1 0 -2399 0 -2399 23 0 c12 0 29 0 37 0 62 -2 217
0 250 3 14 2 39 0 56 -4 18 -3 37 -3 44 1 7 4 24 4 39 1 14 -4 41 -4 59 0 19
4 32 3 32 -3 0 -5 5 -6 11 -2 6 3 41 6 78 5 75 -3 125 -2 161 2 14 2 39 0 56
-4 18 -3 37 -3 44 1 7 4 24 4 39 1 14 -4 41 -4 59 0 19 4 32 3 32 -3 0 -5 5
-6 11 -2 6 3 41 6 78 5 75 -3 125 -2 161 2 14 2 39 0 56 -4 18 -3 37 -3 44 1
7 4 24 4 39 1 14 -4 41 -4 59 0 19 4 32 3 32 -3 0 -5 5 -6 11 -2 6 3 41 6 78
5 75 -3 125 -2 161 2 14 2 39 0 57 -4 18 -4 35 -4 38 -1 3 4 23 5 43 4 l37 -3
-1 94 c-1 52 -4 99 -6 103 -3 5 -2 18 2 29 4 11 4 32 -1 48 -4 15 -5 27 -1 27
4 0 7 16 7 35 0 19 -3 35 -7 35 -4 0 -3 12 1 28 4 15 4 39 0 54 -4 16 -4 28
-1 28 6 0 7 66 2 80 -2 3 -2 9 0 15 5 28 4 95 -2 95 -4 0 -3 12 1 28 5 15 5
36 1 47 -4 11 -5 24 -2 29 3 6 5 28 4 50 -3 47 -3 36 -1 170 1 57 -1 108 -4
113 -3 5 -2 15 2 22 5 7 5 28 1 47 -4 19 -5 34 -1 34 3 0 5 21 3 47 -2 27 -2
71 -2 98 1 28 1 56 0 63 0 16 0 36 0 67 0 14 0 32 0 40 0 8 0 26 0 40 0 26 0
45 0 70 1 8 1 31 1 50 0 19 0 42 -1 50 0 25 0 44 0 70 0 14 0 32 0 40 0 8 0
26 0 40 0 49 0 61 1 127 0 37 -2 72 -6 78 -3 5 -3 10 2 10 4 0 8 29 8 65 0 36
-3 65 -7 65 -4 0 -3 12 1 28 5 15 5 36 1 47 -4 11 -5 24 -2 29 3 6 5 28 4 50
-3 55 -3 55 0 104 2 23 0 42 -4 42 -4 0 -3 13 2 29 4 15 5 34 1 40 -4 7 -5 32
-1 57 4 24 4 47 -1 49 -27 17 33 86 131 150 63 41 191 105 209 105 5 0 22 7
37 15 16 8 37 15 47 15 10 0 27 5 37 10 18 9 208 61 270 74 166 33 229 44 314
52 60 5 66 9 61 36 -3 12 -7 65 -10 118 -4 52 -8 122 -10 155 -2 33 -7 103
-10 155 -3 52 -7 124 -10 160 -5 76 -15 225 -21 325 -2 39 -6 104 -9 145 -8
125 -14 231 -20 320 -2 46 -7 120 -10 165 -5 66 -13 198 -15 228 0 11 -26 8
-139 -18z"/>
<path d="M4288 2295 c-2 -2 -42 -6 -90 -9 -48 -3 -93 -8 -100 -11 -7 -2 -29
-6 -48 -9 -57 -9 -194 -47 -207 -58 -7 -6 -13 -8 -13 -4 0 10 -109 -51 -156
-87 -52 -40 -115 -123 -154 -202 -33 -69 -75 -209 -85 -281 -3 -27 -9 -69 -12
-94 -9 -63 -10 -474 -1 -540 16 -114 18 -123 43 -220 29 -113 121 -283 169
-312 6 -3 25 -18 41 -32 30 -26 141 -86 167 -90 7 -1 18 -4 23 -8 15 -9 173
-45 230 -53 114 -15 169 -18 340 -19 198 0 325 8 430 29 223 45 346 107 450
230 51 60 118 221 141 340 2 11 6 31 8 45 16 81 20 158 21 355 0 121 -4 245
-8 275 -23 161 -22 158 -51 252 -43 143 -117 261 -204 328 -72 55 -204 112
-312 134 -14 3 -34 7 -45 9 -18 4 -73 13 -150 23 -34 5 -423 13 -427 9z"/>
</g>
</svg>
